<?xml version="1.0" encoding="utf-8"?>
<!-- Generator: Adobe Illustrator 22.1.0, SVG Export Plug-In . SVG Version: 6.00 Build 0)  -->
<svg version="1.1" id="b9a78677-c6ff-4166-85e2-4e2750d12f14"
	 xmlns="http://www.w3.org/2000/svg" xmlns:xlink="http://www.w3.org/1999/xlink" x="0px" y="0px" viewBox="0 0 835 673.7"
	 style="enable-background:new 0 0 835 673.7;" xml:space="preserve">
<style type="text/css">
	.st0{fill:#676DD6;}
	.st1{fill:#3F3D56;}
	.st2{fill:#D0CDE1;}
	.st3{fill:#6C63FF;}
	.st4{opacity:0.1;enable-background:new    ;}
	.st5{fill:#F2F2F2;}
	.st6{fill:#FFB8B8;}
	.st7{fill:#2F2E41;}
	.st8{fill:#575A89;}
</style>
<title>bookshelves</title>
<rect x="49.8" class="st0" width="338" height="597"/>
<ellipse class="st1" cx="417.5" cy="599.9" rx="417.5" ry="9.7"/>
<ellipse class="st1" cx="417.5" cy="632" rx="289" ry="6.7"/>
<ellipse class="st1" cx="417.6" cy="661.1" rx="235.8" ry="5.5"/>
<rect x="49.8" y="114.5" class="st2" width="338" height="2"/>
<rect x="49.8" y="236.5" class="st2" width="338" height="2"/>
<rect x="49.8" y="358.5" class="st2" width="338" height="2"/>
<rect x="49.8" y="480.5" class="st2" width="338" height="2"/>
<path class="st2" d="M204.8,266.1L204.8,266.1l-6-18.5l-1.1,1c-6.7,6.2-15.9,9.1-24.9,8l-1.5-0.2l6,18.5l0,0l4.1,12.7l0,0l13.8,42.8
	l0,0l4.1,12.7l0,0l4.5,14l1.1-0.8c7.3-5.3,16.1-8.1,25.1-8.1l1.4,0l-4.5-14l0,0l-4.1-12.7l0,0l-13.8-42.8l0,0L204.8,266.1z
	 M174.1,258.7c8.6,0.7,17.2-2.1,23.8-7.7l5,15.6l-23.8,7.7L174.1,258.7z M179.7,276.3l23.8-7.7l2.9,8.9l-23.8,7.7L179.7,276.3z
	 M228.5,346.4c-8.5,0.2-16.8,2.9-23.8,7.7l-3.7-11.5l23.8-7.7L228.5,346.4z M224.2,333l-23.8,7.7l-2.9-8.9l23.8-7.7L224.2,333z
	 M220.7,322.2l-23.8,7.7l-13.8-42.8l23.8-7.7L220.7,322.2z"/>
<path class="st2" d="M86.8,144.1L86.8,144.1l-6-18.5l-1.1,1c-6.7,6.2-15.9,9.1-24.9,8l-1.5-0.2l6,18.5l0,0l4.1,12.7l0,0L77,208.5
	l0,0l4.1,12.7l0,0l4.5,14l1.1-0.8c7.3-5.3,16.1-8.1,25.1-8.1l1.4,0l-4.5-14l0,0l-4.1-12.7l0,0l-13.8-42.8l0,0L86.8,144.1z
	 M56.1,136.7c8.6,0.7,17.2-2.1,23.8-7.7l5,15.6l-23.8,7.7L56.1,136.7z M61.7,154.3l23.8-7.7l2.9,8.9l-23.8,7.7L61.7,154.3z
	 M110.5,224.4c-8.5,0.2-16.8,2.9-23.8,7.7L83,220.6l23.8-7.7L110.5,224.4z M106.2,211l-23.8,7.7l-2.9-8.9l23.8-7.7L106.2,211z
	 M102.7,200.2l-23.8,7.7l-13.8-42.8l23.8-7.7L102.7,200.2z"/>
<path class="st1" d="M782.7,117.5c-7.6,0-13.7-6.1-13.7-13.7c0-7.6,6.1-13.7,13.7-13.7c7.6,0,13.7,6.1,13.7,13.7
	C796.4,111.3,790.3,117.5,782.7,117.5z M782.7,92.4c-6.3,0-11.4,5.1-11.4,11.4s5.1,11.4,11.4,11.4s11.4-5.1,11.4-11.4c0,0,0,0,0,0
	C794.1,97.5,789,92.4,782.7,92.4z"/>
<path class="st1" d="M807.4,515h-22.5v-22.5h22.5V515z M786.6,513.3h19.1v-19.1h-19.1V513.3z"/>
<path class="st1" d="M444.2,161.6l-15.4-16.5l16.5-15.4l15.4,16.5L444.2,161.6z M431.3,145.2l13,14l14-13l-13-14L431.3,145.2z"/>
<polygon class="st3" points="687.9,364.2 656.2,402.6 703.1,458 734.4,421.2 "/>
<polygon class="st4" points="687.9,364.2 656.2,402.6 703.1,458 734.4,421.2 "/>
<path class="st5" d="M657.5,403.1L657.5,403.1c0.7-1.3,1.6-2.4,2.6-3.5l29.1-29.5c0,0,10.2-1.7,12.3,3.4l-37.2,30.5L657.5,403.1z"/>
<path class="st3" d="M656,402.4l43.1,66c0,0,4.2,3,8.5,1.3l44.2-29.8l-46.9-71.1l-42.3,33L656,402.4z"/>
<rect x="682.2" y="403.7" transform="matrix(0.8295 -0.5585 0.5585 0.8295 -109.8189 460.6921)" class="st1" width="35" height="13"/>
<path class="st6" d="M692.3,348.5c0,0,4,30-10,29s-7-27-7-27L692.3,348.5z"/>
<path class="st7" d="M582.3,240.5l-17-2v-2l-16-2c0,0-35,66-33,108s29,226,29,226s42-4,48-16l-7-41l-4-49c0,0,27,137,39,137
	s47-7,44-12s-39-159-39-159l-4-75l-9-110L582.3,240.5z"/>
<circle class="st6" cx="596.3" cy="112.5" r="28"/>
<path class="st6" d="M597.3,131.5c0,0,11,25,3,36s43-18,43-18s-25-24-26-35L597.3,131.5z"/>
<path class="st2" d="M643.3,145.5c0,0-26,16-47,10l-52,85l86,16l19-108L643.3,145.5z"/>
<path class="st8" d="M631.3,142.5c0,0,4-5,9-2c5,3,37,4,39,17s-48,211-48,211l-8-2c0,0,9-3-26-12s-40-39-32-75s11-58,11-58
	L631.3,142.5z"/>
<path class="st8" d="M602.6,149.4c0,0-35.3,15.1-36.3,20.1s-39,95-39,95l-8,7l4,3l-29,64c0,0,1,8,16,8h9c0,0,15-76,25-90
	S618.9,162.3,602.6,149.4z"/>
<path class="st8" d="M666.3,152.5c0,0,13-4,16,22s2,43,2,43l13,136l-28,3l-25-153L666.3,152.5z"/>
<path class="st7" d="M553.3,561.5c0,0,0,20-9,23s-36,27-4,26s29-16,29-16v-4l8,4l16-4c0,0,5-35,0-38S553.3,561.5,553.3,561.5z"/>
<path class="st7" d="M628.3,594.5c0,0,1,30-11,44s-25,33-9,35s45-10,44-17s0-9,0-9h5l8-6c0,0,5-49-4-53S628.3,594.5,628.3,594.5z"/>
<path class="st6" d="M542.3,216.5l7-10c0,0,13-12,22-6s-16.8,23.4-16.8,23.4h-7.2l-2.9,2L542.3,216.5z"/>
<circle class="st7" cx="580.8" cy="236" r="4"/>
<circle class="st7" cx="579.8" cy="251" r="4"/>
<path class="st8" d="M532.3,229.5l12-23c0,0,0.1,21.2,7.6,21.6l-15.6,22.4L532.3,229.5z"/>
<path class="st7" d="M559.8,104.2c0,0-16.2-45.8,36.5-41c0,0,33.9-14.1,54.9,27.6l21.7,43.7l-6.4-1.9l-1.4,6.4l-8.7,4.3l-5.6-7
	l0.1,10l-74.2,23.8c0,0,29.6-27.4,22.4-63.5l-5,8.2L559.8,104.2z"/>
<path class="st3" d="M315.8,454.9v11c0.1,6-4.7,11-10.8,11h-31.5c-6-0.1-10.8-5-10.8-11v-11c-0.1-6,4.7-11,10.8-11h9.9V443h11.6v0.8
	h9.9C311,443.9,315.8,448.9,315.8,454.9z"/>
<path class="st2" d="M313.8,438h-12v-17h-6v-8.8c0.5,0.2,0.9,0.2,1.4,0.2c3.2,0,8.2-2.7,12.5-6.2c4-3.4,6.9-7.8,8.4-12.8l0.4-1.4
	l-1.4,0.1c-5.2,0.4-10.2,2.3-14.3,5.5c-2.7,2.1-5.1,4.6-7,7.4v-12.6c2.6-1.8,4-8.2,4-14.5c-0.2-5.2-1.8-10.3-4.7-14.6l-0.8-1.1
	l-0.8,1.1c-2.9,4.3-4.5,9.4-4.7,14.6c0,7.1,1.7,14.3,5,14.9V421h-6v17h-12c-7.2,0-13,5.8-13,13v13c0,7.2,5.8,13,13,13h38
	c7.2,0,13-5.8,13-13v-13C326.8,443.8,320.9,438,313.8,438z M304.1,399.3c3.4-2.6,7.4-4.2,11.6-4.9c-1.5,4-4,7.6-7.2,10.3
	c-6.1,4.9-11.5,6.5-12.3,5.4C295.3,409.1,298,404.2,304.1,399.3z M290.8,378c0.1-4.3,1.3-8.4,3.5-12.1c2.2,3.7,3.4,7.8,3.5,12.1
	c0,7.8-2.1,13-3.5,13S290.8,385.8,290.8,378L290.8,378z M324.8,464c0,6.1-4.9,11-11,11h-38c-6.1,0-11-4.9-11-11v-13
	c0-6.1,4.9-11,11-11h14v-17h10v17h14c6.1,0,11,4.9,11,11V464z"/>
<path class="st3" d="M165.8,271v3.4h-25V271h-2v68h2v-2.1h25v2.1h2v-68H165.8z M165.8,325.3h-25v-39.2h25V325.3z"/>
<path class="st3" d="M126.8,278v3.1h-25V278h-2v61h2v-1.9h25v1.9h2v-61L126.8,278z M126.8,326.7h-25v-35.2h25V326.7z"/>
<path class="st3" d="M87.8,271v3.2h-25V271h-2v64h2v-2h25v2h2v-64H87.8z M87.8,322.1h-25v-36.9h25V322.1z"/>
<path class="st3" d="M371.8,151v3.4h-25V151h-2v68h2v-2.1h25v2.1h2v-68H371.8z M371.8,205.3h-25v-39.2h25V205.3z"/>
<path class="st3" d="M332.8,158v3.1h-25V158h-2v61h2v-1.9h25v1.9h2v-61L332.8,158z M332.8,206.7h-25v-35.2h25V206.7z"/>
<path class="st3" d="M293.8,151v3.2h-25V151h-2v64h2v-2h25v2h2v-64H293.8z M293.8,202.1h-25v-36.9h25V202.1z"/>
<path class="st2" d="M166.4,252.1c-8.3,3.8-17.9,3.8-26.2,0l-1.4-0.6v105.9l1.3-0.4c8.6-2.8,17.8-2.8,26.4,0l1.3,0.4V251.5
	L166.4,252.1z M140.8,329.2v-45h25v45H140.8z M165.8,331.2v9.4h-25v-9.4H165.8z M140.8,282.3v-9.4h25v9.4H140.8z M165.8,354.6
	c-8.2-2.4-16.8-2.4-25,0v-12h25V354.6z M165.8,270.9h-25v-16.4c8,3.3,17,3.3,25,0V270.9z"/>
<path class="st2" d="M127.5,357l1.3,0.4V251.5l-1.4,0.6c-8.3,3.8-17.9,3.8-26.2,0l-1.4-0.6v105.9l1.3-0.4
	C109.7,354.2,118.9,354.2,127.5,357z M126.8,340.6h-25v-9.4h25V340.6z M126.8,282.3h-25v-9.4h25V282.3z M101.8,254.5
	c8,3.3,17,3.3,25,0v16.4h-25V254.5z M101.8,284.3h25v45h-25V284.3z M101.8,342.6h25v12c-8.2-2.4-16.8-2.4-25,0V342.6z"/>
<path class="st2" d="M88.5,357l1.3,0.4V251.5l-1.4,0.6c-8.3,3.8-17.9,3.8-26.2,0l-1.4-0.6v105.9l1.3-0.4
	C70.7,354.2,79.9,354.2,88.5,357z M87.8,340.6h-25v-9.4h25V340.6z M87.8,282.3h-25v-9.4h25V282.3z M62.8,254.5c8,3.3,17,3.3,25,0
	v16.4h-25V254.5z M62.8,284.3h25v45h-25V284.3z M62.8,342.6h25v12c-8.2-2.4-16.8-2.4-25,0V342.6z"/>
<path class="st2" d="M294.5,235l1.3,0.4V129.5l-1.4,0.6c-8.3,3.8-17.9,3.8-26.2,0l-1.4-0.6v105.9l1.3-0.4
	C276.7,232.2,285.9,232.2,294.5,235z M293.8,218.6h-25v-9.4h25V218.6z M293.8,160.3h-25v-9.4h25V160.3z M268.8,132.5
	c8,3.3,17,3.3,25,0v16.4h-25V132.5z M268.8,162.3h25v45h-25V162.3z M268.8,220.6h25v12c-8.2-2.4-16.8-2.4-25,0V220.6z"/>
<path class="st2" d="M333.5,235l1.3,0.4V129.5l-1.4,0.6c-8.3,3.8-17.9,3.8-26.2,0l-1.4-0.6v105.9l1.3-0.4
	C315.7,232.2,324.9,232.2,333.5,235z M332.8,218.6h-25v-9.4h25V218.6z M332.8,160.3h-25v-9.4h25V160.3z M307.8,132.5
	c8,3.3,17,3.3,25,0v16.4h-25V132.5z M307.8,162.3h25v45h-25V162.3z M307.8,220.6h25v12c-8.2-2.4-16.8-2.4-25,0V220.6z"/>
<path class="st2" d="M372.5,235l1.3,0.4V129.5l-1.4,0.6c-8.3,3.8-17.9,3.8-26.2,0l-1.4-0.6v105.9l1.3-0.4
	C354.7,232.2,363.9,232.2,372.5,235z M371.8,218.6h-25v-9.4h25V218.6z M371.8,160.3h-25v-9.4h25V160.3z M346.8,132.5
	c8,3.3,17,3.3,25,0v16.4h-25V132.5z M346.8,162.3h25v45h-25V162.3z M346.8,232.7v-12h25v12C363.6,230.3,354.9,230.3,346.8,232.7z"/>
</svg>
